<svg width="1080" height="1080" viewBox="0 0 1080 1080" fill="none" xmlns="http://www.w3.org/2000/svg">
<g clip-path="url(#clip0_5965_1554)">
<path d="M104 921.982L248.768 361.157C267.475 288.694 339.339 231.534 412.367 231.04L694.392 229.118L563.746 735.27C537.124 838.394 435.058 919.725 331.37 920.448L104.018 922H104V921.982ZM330.788 835.714C395.705 835.273 464.819 779.576 481.727 714.077L584.851 314.558L412.948 315.74C378.268 315.969 339.885 347.088 330.788 382.314L213.559 836.507L330.788 835.696V835.714Z" fill="#CCFD0A"/>
<path d="M667.84 765.225L495.55 766.406L626.548 258.897C640.477 204.946 695.486 160.922 749.419 160.552L976.383 159L859.507 611.835C837.786 695.988 751.975 764.661 667.84 765.243V765.225Z" fill="#CCFD0A"/>
</g>
<defs>
<clipPath id="clip0_5965_1554">
<rect width="1080" height="1080" fill="white"/>
</clipPath>
</defs>
</svg>
