<svg width="1479" height="680" viewBox="0 0 1479 680" fill="none" xmlns="http://www.w3.org/2000/svg">
<g clip-path="url(#clip0_5965_1559)">
<path d="M94 516.984L161.159 256.797C169.84 223.178 203.178 196.665 237.062 196.431L367.912 195.541L307.296 430.369C294.945 478.213 247.586 515.953 199.477 516.281L94 517V516.984ZM199.212 476.964C229.332 476.761 261.405 450.918 269.243 420.532L317.087 235.186L237.327 235.733C221.244 235.842 203.428 250.27 199.212 266.619L144.826 477.338L199.212 476.964Z" fill="#CCFD0A"/>
<path d="M355.577 444.251L275.646 444.798L336.418 209.344C342.882 184.314 368.397 163.89 393.427 163.718L498.732 163L444.502 373.08C434.431 412.116 394.614 443.986 355.577 444.251Z" fill="#CCFD0A"/>
<path d="M619.277 234.796C619.121 234.828 619.137 234.859 619.277 234.859C624.43 256.875 629.879 278.877 635.032 300.862C640.654 278.783 646.259 256.704 651.88 234.625C654.91 222.711 657.939 210.781 660.968 198.851C665.621 180.535 681.673 168.34 701.145 168.34H740.119C728.33 214.435 716.697 260.514 704.908 306.577C695.524 343.271 686.123 379.966 676.739 416.66C672.414 433.54 657.595 444.782 639.639 444.782H600.914C595.449 422.703 589.906 400.624 584.675 378.545C579.444 356.466 574.057 334.387 569.045 312.261C563.283 334.371 557.662 356.45 552.056 378.545C548.73 391.646 545.404 404.746 542.063 417.847C537.956 434.024 523.762 444.798 506.57 444.798H463.974C473.389 408.025 482.633 371.253 492.049 334.48C501.464 297.708 510.864 260.935 520.28 224.131C521.779 218.011 517.079 213.045 509.693 213.045H505.384C507.757 203.645 510.146 194.245 512.52 184.845C515.018 174.945 523.7 168.34 534.224 168.34H603.194C606.66 183.237 610.424 198.149 614.031 213.045L619.308 234.796H619.277Z" fill="#CCFD0A"/>
<path d="M834.057 239.153C830.294 254.19 826.374 269.211 822.611 284.217H927.136C923.357 299.113 919.578 314.025 915.8 328.921H811.134C808.074 340.789 805.092 352.671 802.109 364.507C799.127 376.39 799.829 372.377 796.769 384.229H914.769C914.363 385.806 910.131 403.247 909.741 404.824C903.651 428.809 882.634 444.782 857.135 444.782H710.326C714.105 429.886 717.884 414.974 721.662 400.077C724.723 388.226 727.846 376.374 730.844 364.507C733.826 352.671 736.809 340.789 739.869 328.921C743.648 314.025 747.583 299.113 751.362 284.217C756.389 264.199 761.558 244.181 766.726 224.147C768.163 218.042 763.432 213.061 756.249 213.061H751.752C754.11 203.786 756.452 194.526 758.81 185.235C761.386 175.086 770.271 168.325 781.061 168.325C804.717 168.356 828.389 168.356 852.185 168.356H970.185C966.407 183.252 958.006 214.013 954.227 228.925H837.024L834.088 239.168H834.057V239.153Z" fill="#CCFD0A"/>
<path d="M1103.46 239.137C1094.65 273.427 1085.77 307.701 1077.04 341.991C1070.6 367.239 1064.17 392.551 1057.71 417.847C1053.57 434.023 1039.37 444.782 1022.18 444.782H979.523C989.485 406.167 998.042 367.068 1009.25 328.905C1022.65 283.326 1024.31 279.376 1034.74 241.947C1035.08 240.714 1044.12 238.231 1052.86 235.436C1064.12 231.845 1072.68 228.894 1076.18 228.894H975.057C976.462 223.428 977.634 215.84 978.742 207.673C981.865 184.579 1000.74 168.309 1024.51 168.309H1187.26C1183.62 183.236 1175.96 213.997 1172.13 228.909H1106.28L1103.5 239.152H1103.46V239.137Z" fill="#CCFD0A"/>
<path d="M1192.98 213.482C1199.83 186.391 1223.58 168.34 1252.36 168.34H1385.65L1376.03 191.028C1370.28 204.582 1357.12 213.045 1341.78 213.045H1277.7C1269.66 213.045 1263.02 218.073 1261.07 225.631L1257.59 239.137C1256.93 241.62 1256.43 244.103 1255.78 246.585C1255.12 249.099 1254.47 251.582 1253.81 254.065C1251.59 263.418 1256.31 271.428 1265.88 274.661C1265.88 274.692 1266.04 274.723 1266.19 274.723C1273.7 277.299 1281.53 279.845 1289.33 282.39C1302.59 286.809 1315.99 291.243 1329.39 295.631C1354.92 304.047 1367.17 324.955 1360.91 349.548V349.611C1360.4 351.859 1359.71 354.092 1359.18 356.31C1358.65 358.496 1358.12 360.666 1357.57 362.821C1354.31 375.266 1351.18 387.695 1348.06 400.109C1341.64 424.702 1312.58 444.814 1283.04 444.814H1187.34C1157.95 444.814 1138.86 424.702 1145.27 400.109L1149.1 384.557C1152.19 371.971 1163.18 363.555 1176.53 363.555H1225.67L1221.85 379.607C1220.96 382.73 1220.21 385.821 1219.47 388.897C1217.27 397.126 1221.14 401.046 1239.38 401.046C1245.97 401.249 1251 400.655 1257.59 400.858C1271.55 400.858 1277.58 396.814 1279.5 388.897C1280.25 385.806 1281.14 382.714 1281.87 379.607C1282.95 375.281 1284.17 370.941 1285.23 366.584C1285.88 364.101 1286.54 361.619 1287.19 359.105C1289.57 349.72 1285.01 341.741 1275.12 338.478C1274.97 338.478 1274.97 338.446 1274.97 338.415C1267.16 335.87 1259.49 333.325 1251.98 330.748C1238.43 326.361 1225.03 321.942 1211.78 317.507C1186.25 309.091 1173.99 288.183 1180.09 263.621C1180.78 261.372 1181.3 259.14 1181.83 256.86C1182.36 254.674 1183.04 252.503 1183.58 250.317C1185.72 241.589 1187.99 232.876 1190.29 224.147L1192.99 213.498H1192.98V213.482ZM1319.16 233.469L1319.13 233.719Z" fill="#CCFD0A"/>
<path d="M469.002 476.23H476.138C476.434 476.23 476.684 476.371 476.825 476.636C479.463 481.227 482.227 485.771 484.851 490.361C485.678 485.88 486.443 481.383 487.208 476.902C487.271 476.511 487.599 476.23 487.989 476.23H494.391C494.891 476.23 495.266 476.683 495.172 477.167C493.751 485.255 492.346 493.359 490.925 501.463C490.862 501.854 490.534 502.119 490.144 502.119H483.164C482.883 502.119 482.633 501.979 482.477 501.729C479.713 497.17 476.996 492.579 474.295 487.988C473.546 492.485 472.702 496.967 471.953 501.448C471.89 501.838 471.562 502.119 471.172 502.119H464.848C464.348 502.119 463.974 501.666 464.067 501.182C465.473 493.094 466.831 484.99 468.237 476.886C468.299 476.496 468.627 476.23 469.017 476.23H469.002Z" fill="#CCFD0A"/>
<path d="M501.949 476.23H524.887C525.386 476.23 525.761 476.667 525.683 477.152C525.496 478.323 525.308 479.478 525.121 480.649C525.121 480.665 525.121 480.68 525.121 480.696C525.011 481.149 524.949 481.602 524.855 482.07C524.793 482.46 524.465 482.726 524.075 482.726H508.116C508.038 483.069 508.038 483.429 507.96 483.772C507.804 484.49 507.726 485.209 507.57 485.927H520.827C521.326 485.927 521.701 486.38 521.607 486.864C521.311 488.488 521.014 490.112 520.764 491.736C520.702 492.126 520.374 492.407 519.968 492.407H506.43C506.274 493.11 506.118 493.812 506.04 494.515L505.79 495.592H521.436C521.935 495.592 522.31 496.045 522.216 496.529C521.935 498.169 521.686 499.808 521.389 501.448C521.326 501.838 520.999 502.104 520.608 502.104H497.67C497.171 502.104 496.796 501.666 496.874 501.167C497.155 499.449 497.483 497.732 497.748 495.998C497.748 495.998 497.748 495.983 497.748 495.967C498.623 491.423 499.419 486.864 500.215 482.304C500.496 480.493 500.84 478.682 501.137 476.87C501.199 476.48 501.527 476.199 501.933 476.199L501.949 476.23Z" fill="#CCFD0A"/>
<path d="M528.15 482.726C527.65 482.726 527.276 482.274 527.369 481.79C527.666 480.166 527.963 478.542 528.213 476.918C528.275 476.527 528.603 476.246 529.009 476.246H553.618C554.117 476.246 554.476 476.683 554.414 477.168C554.164 478.807 553.867 480.447 553.555 482.086C553.493 482.477 553.165 482.742 552.774 482.742H544.296C543.218 488.988 542.078 495.218 541.001 501.464C540.939 501.854 540.611 502.12 540.22 502.12H533.896C533.397 502.12 533.022 501.683 533.116 501.183C534.177 495.031 535.239 488.879 536.285 482.726H528.181H528.15Z" fill="#CCFD0A"/>
<path d="M568.42 501.698C568.28 501.963 568.014 502.119 567.717 502.119H561.472C561.081 502.119 560.753 501.838 560.691 501.448C560.66 501.307 560.66 501.167 560.66 501.026C559.051 493.094 557.599 485.131 556.069 477.183C555.975 476.683 556.35 476.23 556.85 476.23H563.72C564.11 476.23 564.423 476.496 564.501 476.87C565.328 481.024 566.078 485.177 566.921 489.331C569.154 485.099 571.449 480.899 573.682 476.667C573.823 476.402 574.088 476.246 574.385 476.246H580.568C580.943 476.246 581.271 476.511 581.349 476.87L581.458 477.354C582.177 481.367 582.973 485.349 583.754 489.347C585.924 485.084 588.282 480.915 590.515 476.667C590.655 476.402 590.921 476.246 591.217 476.246H597.916C598.525 476.246 598.9 476.886 598.619 477.417C594.45 485.302 590.218 493.157 585.987 501.011C585.987 501.026 585.971 501.057 585.955 501.073C585.815 501.292 585.674 501.51 585.549 501.729C585.409 501.979 585.143 502.135 584.847 502.135H578.694C578.304 502.135 577.976 501.869 577.914 501.479C577.086 497.138 576.321 492.782 575.494 488.457C573.12 492.86 570.731 497.279 568.404 501.713L568.42 501.698Z" fill="#CCFD0A"/>
<path d="M610.642 476.23H625.414C628.802 476.23 631.066 479.025 630.504 482.336C629.724 486.895 628.896 491.454 628.115 496.014C627.537 499.371 624.29 502.119 620.886 502.119H606.114C602.726 502.119 600.462 499.324 601.024 496.014C601.805 491.454 602.632 486.895 603.413 482.336C603.991 478.978 607.238 476.23 610.642 476.23ZM621.37 482.726H612.469C611.876 482.726 611.298 483.163 611.205 483.757C610.58 487.363 609.909 490.97 609.3 494.593C609.19 495.186 609.581 495.608 610.174 495.608H619.074C619.637 495.608 620.167 495.14 620.261 494.593C620.886 490.986 621.557 487.379 622.166 483.757C622.26 483.21 621.947 482.726 621.37 482.726Z" fill="#CCFD0A"/>
<path d="M636.922 476.902C636.984 476.511 637.312 476.23 637.718 476.23H657.049C660.469 476.23 662.717 478.994 662.139 482.336C661.765 484.459 661.406 486.598 661.031 488.722C660.531 491.501 658.251 493.859 655.55 494.593C656.627 496.732 657.752 498.84 658.892 500.948C659.173 501.479 658.798 502.119 658.189 502.119H650.241C649.929 502.119 649.679 501.963 649.538 501.698C648.336 499.402 647.134 497.123 645.947 494.827H641.809C641.372 497.029 641.013 499.246 640.654 501.448C640.591 501.838 640.263 502.119 639.857 502.119H633.455C632.956 502.119 632.581 501.666 632.675 501.182C633.736 495.03 634.861 488.878 635.922 482.726C636.266 480.79 636.625 478.853 636.937 476.902H636.922ZM652.052 488.316C652.615 488.316 653.145 487.832 653.239 487.285C653.458 486.114 653.661 484.943 653.879 483.772C653.973 483.21 653.567 482.742 653.005 482.742H643.87L642.918 488.332H652.052V488.316Z" fill="#CCFD0A"/>
<path d="M669.385 476.23H675.802C676.302 476.23 676.677 476.667 676.599 477.151C676.083 480.29 675.506 483.428 675.006 486.567C678.332 483.132 681.783 479.806 685.187 476.449C685.343 476.292 685.53 476.214 685.749 476.214H693.01C693.728 476.214 694.087 477.089 693.572 477.588C689.668 481.445 685.733 485.271 681.845 489.159C684.375 493.094 686.951 496.998 689.574 500.87C689.934 501.401 689.559 502.119 688.919 502.119H681.314C681.049 502.119 680.815 501.994 680.658 501.776C679.081 499.496 677.567 497.169 676.052 494.858C675.022 495.889 673.991 496.919 672.96 497.934L672.351 501.448C672.289 501.838 671.961 502.119 671.571 502.119H665.169C664.669 502.119 664.294 501.666 664.388 501.182C665.809 493.094 667.214 484.99 668.635 476.886C668.698 476.495 669.026 476.23 669.416 476.23H669.385Z" fill="#CCFD0A"/>
<path d="M716.697 476.23H739.635C740.135 476.23 740.51 476.667 740.431 477.152C740.244 478.323 740.057 479.478 739.869 480.649C739.869 480.665 739.869 480.68 739.869 480.696C739.76 481.149 739.698 481.602 739.619 482.07C739.541 482.46 739.229 482.726 738.839 482.726H722.881C722.803 483.069 722.802 483.429 722.724 483.772C722.568 484.49 722.49 485.209 722.334 485.927H735.591C736.091 485.927 736.465 486.38 736.372 486.864C736.075 488.488 735.778 490.112 735.528 491.736C735.466 492.126 735.138 492.407 734.732 492.407H721.194C721.038 493.11 720.882 493.812 720.804 494.515L720.554 495.592H736.2C736.7 495.592 737.074 496.045 736.981 496.529C736.7 498.169 736.45 499.808 736.153 501.448C736.091 501.838 735.763 502.104 735.372 502.104H712.434C711.935 502.104 711.56 501.666 711.638 501.167C711.919 499.449 712.247 497.732 712.512 495.998C712.512 495.998 712.512 495.983 712.512 495.967C713.387 491.423 714.183 486.864 714.98 482.304C715.261 480.493 715.604 478.682 715.901 476.87C715.963 476.48 716.291 476.199 716.697 476.199V476.23Z" fill="#CCFD0A"/>
<path d="M742.914 476.23H749.847C750.237 476.23 750.565 476.511 750.628 476.886C751.393 481.242 752.221 485.568 753.126 489.893C753.126 489.924 753.126 489.94 753.126 489.971C753.204 490.689 753.298 491.423 753.517 492.11C753.845 491.345 754.313 490.658 754.703 489.924C757.03 485.474 759.403 481.055 761.792 476.636C761.933 476.371 762.198 476.214 762.495 476.214H769.178C769.787 476.214 770.162 476.855 769.881 477.385C765.555 485.489 761.23 493.578 756.905 501.682C756.764 501.947 756.499 502.103 756.202 502.103H747.505C747.115 502.103 746.787 501.838 746.724 501.448C745.21 493.344 743.679 485.255 742.102 477.167C742.009 476.667 742.383 476.214 742.883 476.214L742.914 476.23Z" fill="#CCFD0A"/>
<path d="M776.86 476.23H799.798C800.298 476.23 800.673 476.667 800.595 477.152C800.407 478.323 800.22 479.478 800.033 480.649C800.033 480.665 800.033 480.68 800.033 480.696C799.923 481.149 799.861 481.602 799.767 482.07C799.705 482.46 799.377 482.726 798.986 482.726H783.028C782.95 483.069 782.95 483.429 782.872 483.772C782.716 484.49 782.638 485.209 782.482 485.927H795.739C796.238 485.927 796.613 486.38 796.519 486.864C796.223 488.488 795.926 490.112 795.676 491.736C795.614 492.126 795.286 492.407 794.88 492.407H781.342C781.186 493.11 781.03 493.812 780.952 494.515L780.702 495.592H796.348C796.847 495.592 797.222 496.045 797.128 496.529C796.847 498.169 796.597 499.808 796.301 501.448C796.238 501.838 795.91 502.104 795.52 502.104H772.582C772.082 502.104 771.708 501.666 771.786 501.167C772.067 499.449 772.395 497.732 772.66 495.998C772.66 495.998 772.66 495.983 772.66 495.967C773.535 491.423 774.331 486.864 775.127 482.304C775.408 480.493 775.752 478.682 776.048 476.87C776.111 476.48 776.439 476.199 776.845 476.199L776.86 476.23Z" fill="#CCFD0A"/>
<path d="M807.231 476.23H814.367C814.664 476.23 814.914 476.371 815.054 476.636C817.693 481.227 820.457 485.771 823.08 490.361C823.908 485.88 824.673 481.383 825.422 476.902C825.485 476.511 825.813 476.23 826.203 476.23H832.605C833.105 476.23 833.479 476.683 833.386 477.167C831.965 485.255 830.559 493.359 829.139 501.463C829.076 501.854 828.748 502.119 828.358 502.119H821.378C821.097 502.119 820.847 501.979 820.691 501.729C817.927 497.17 815.21 492.579 812.493 487.988C811.744 492.485 810.901 496.967 810.151 501.448C810.089 501.838 809.761 502.119 809.37 502.119H803.046C802.547 502.119 802.172 501.666 802.266 501.182C803.671 493.094 805.029 484.99 806.435 476.886C806.497 476.496 806.825 476.23 807.215 476.23H807.231Z" fill="#CCFD0A"/>
<path d="M835.915 482.726C835.416 482.726 835.041 482.274 835.135 481.79C835.431 480.166 835.728 478.542 835.978 476.918C836.04 476.527 836.368 476.246 836.774 476.246H861.383C861.882 476.246 862.242 476.683 862.179 477.168C861.914 478.807 861.633 480.447 861.32 482.086C861.258 482.477 860.93 482.742 860.54 482.742H852.077C850.999 488.988 849.859 495.218 848.766 501.464C848.704 501.854 848.376 502.12 847.985 502.12H841.662C841.162 502.12 840.787 501.683 840.881 501.183C841.943 495.031 843.004 488.879 844.051 482.726H835.947H835.915Z" fill="#CCFD0A"/>
<path d="M880.62 482.726C880.12 482.726 879.745 482.274 879.839 481.79C880.136 480.166 880.433 478.542 880.682 476.918C880.745 476.527 881.073 476.246 881.479 476.246H906.087C906.587 476.246 906.946 476.683 906.884 477.168C906.634 478.807 906.337 480.447 906.041 482.086C905.978 482.477 905.65 482.742 905.26 482.742H896.781C895.704 488.988 894.564 495.218 893.486 501.464C893.424 501.854 893.096 502.12 892.706 502.12H886.382C885.882 502.12 885.507 501.683 885.601 501.183C886.663 495.031 887.725 488.879 888.771 482.726H880.667H880.62Z" fill="#CCFD0A"/>
<path d="M918.626 476.23H933.397C936.786 476.23 939.05 479.025 938.487 482.336C937.707 486.895 936.879 491.454 936.098 496.014C935.521 499.371 932.273 502.119 928.869 502.119H914.097C910.709 502.119 908.445 499.324 909.007 496.014C909.788 491.454 910.615 486.895 911.396 482.336C911.974 478.978 915.222 476.23 918.626 476.23ZM929.353 482.726H920.453C919.859 482.726 919.281 483.163 919.188 483.757C918.563 487.363 917.892 490.97 917.283 494.593C917.174 495.186 917.548 495.608 918.157 495.608H927.058C927.62 495.608 928.151 495.14 928.244 494.593C928.869 490.986 929.54 487.379 930.149 483.757C930.243 483.21 929.931 482.726 929.353 482.726Z" fill="#CCFD0A"/>
<path d="M946.295 502.119C942.891 502.119 940.549 499.387 941.127 496.014C941.345 494.78 941.595 493.547 941.767 492.298C941.767 492.298 941.767 492.282 941.767 492.267C941.923 491.33 942.079 490.393 942.235 489.44C942.985 485.256 943.734 481.086 944.437 476.902C944.499 476.511 944.827 476.23 945.233 476.23H951.635C952.135 476.23 952.51 476.667 952.432 477.167C951.76 481.274 951.011 485.365 950.277 489.456C950.105 490.393 949.965 491.345 949.793 492.298C949.715 493.078 949.527 493.828 949.403 494.593C949.309 495.155 949.715 495.624 950.277 495.624H959.255C959.786 495.624 960.286 495.093 960.364 494.593C960.661 492.891 961.004 491.189 961.238 489.471C961.238 489.471 961.238 489.456 961.238 489.44C961.988 485.271 962.737 481.102 963.424 476.917C963.487 476.527 963.815 476.246 964.205 476.246H970.607C971.107 476.246 971.482 476.683 971.388 477.183C970.716 481.289 969.967 485.38 969.233 489.471C969.061 490.408 968.921 491.361 968.749 492.313C968.593 493.562 968.327 494.812 968.109 496.045C967.531 499.402 964.377 502.151 960.957 502.151H946.264L946.295 502.119Z" fill="#CCFD0A"/>
<path d="M977.352 476.902C977.415 476.511 977.743 476.23 978.149 476.23H997.48C1000.9 476.23 1003.15 478.994 1002.57 482.336C1002.2 484.459 1001.84 486.598 1001.46 488.722C1000.96 491.501 998.682 493.859 995.981 494.593C997.058 496.732 998.182 498.84 999.322 500.948C999.603 501.479 999.229 502.119 998.62 502.119H990.672C990.36 502.119 990.11 501.963 989.969 501.698C988.767 499.402 987.565 497.123 986.378 494.827H982.24C981.803 497.029 981.444 499.246 981.084 501.448C981.022 501.838 980.694 502.119 980.304 502.119H973.902C973.402 502.119 973.027 501.666 973.121 501.182C974.183 495.03 975.307 488.878 976.369 482.726C976.712 480.79 977.071 478.853 977.384 476.902H977.352ZM992.483 488.316C993.045 488.316 993.576 487.832 993.67 487.285C993.888 486.114 994.091 484.943 994.31 483.772C994.419 483.21 993.998 482.742 993.436 482.742H984.301L983.349 488.332H992.483V488.316Z" fill="#CCFD0A"/>
<path d="M1009.74 476.23H1016.87C1017.17 476.23 1017.42 476.371 1017.56 476.636C1020.2 481.227 1022.96 485.771 1025.59 490.361C1026.41 485.88 1027.18 481.383 1027.94 476.902C1028.01 476.511 1028.33 476.23 1028.73 476.23H1035.13C1035.63 476.23 1036 476.683 1035.91 477.167C1034.49 485.255 1033.08 493.359 1031.66 501.463C1031.6 501.854 1031.27 502.119 1030.88 502.119H1023.9C1023.62 502.119 1023.37 501.979 1023.21 501.729C1020.45 497.17 1017.73 492.579 1015.03 487.988C1014.27 492.485 1013.44 496.967 1012.69 501.448C1012.63 501.838 1012.3 502.119 1011.91 502.119H1005.58C1005.08 502.119 1004.71 501.666 1004.8 501.182C1006.21 493.094 1007.57 484.99 1008.97 476.886C1009.04 476.496 1009.36 476.23 1009.75 476.23H1009.74Z" fill="#CCFD0A"/>
<path d="M1067.81 502.119H1060.64C1060.28 502.119 1059.99 501.9 1059.88 501.573C1059.67 500.932 1059.44 500.308 1059.25 499.668H1047.34C1046.88 500.339 1046.51 501.073 1046.07 501.744C1045.92 501.979 1045.68 502.119 1045.4 502.119H1038.55C1037.91 502.119 1037.53 501.416 1037.87 500.886C1043.03 492.797 1048.16 484.693 1053.3 476.589C1053.46 476.355 1053.69 476.214 1053.97 476.214H1060.72C1061.08 476.214 1061.39 476.449 1061.48 476.792C1063.8 484.896 1066.18 492.984 1068.56 501.073C1068.71 501.588 1068.32 502.103 1067.79 502.103L1067.81 502.119ZM1051.63 493.172H1057.52C1056.88 491.079 1056.18 489.018 1055.69 486.879C1054.29 488.94 1052.99 491.079 1051.63 493.172Z" fill="#CCFD0A"/>
<path d="M1075.29 476.23H1082.21C1082.56 476.23 1082.86 476.449 1082.97 476.808C1084.64 482.398 1086.2 488.019 1087.89 493.609C1091.54 487.957 1095.18 482.304 1098.77 476.605C1098.93 476.371 1099.16 476.23 1099.44 476.23H1106.24C1106.74 476.23 1107.11 476.683 1107.02 477.167C1105.61 485.255 1104.25 493.359 1102.85 501.463C1102.79 501.854 1102.46 502.119 1102.07 502.119H1095.68C1095.18 502.119 1094.81 501.666 1094.9 501.182C1095.38 498.481 1095.82 495.78 1096.32 493.078C1094.43 495.952 1092.59 498.84 1090.76 501.745C1090.61 501.979 1090.37 502.119 1090.09 502.119H1082.94C1082.58 502.119 1082.27 501.885 1082.17 501.542C1081.36 498.715 1080.53 495.905 1079.72 493.078C1079.21 495.873 1078.75 498.668 1078.25 501.463C1078.19 501.854 1077.86 502.119 1077.47 502.119H1071.15C1070.65 502.119 1070.28 501.666 1070.37 501.182C1071.77 493.094 1073.13 484.99 1074.54 476.886C1074.6 476.496 1074.93 476.23 1075.32 476.23H1075.29Z" fill="#CCFD0A"/>
<path d="M1113.79 476.23H1136.73C1137.23 476.23 1137.61 476.667 1137.53 477.152C1137.34 478.323 1137.15 479.478 1136.97 480.649C1136.97 480.665 1136.97 480.68 1136.97 480.696C1136.86 481.149 1136.79 481.602 1136.7 482.07C1136.64 482.46 1136.31 482.726 1135.92 482.726H1119.96C1119.88 483.069 1119.88 483.429 1119.81 483.772C1119.65 484.49 1119.57 485.209 1119.41 485.927H1132.67C1133.17 485.927 1133.55 486.38 1133.45 486.864C1133.16 488.488 1132.86 490.112 1132.61 491.736C1132.55 492.126 1132.22 492.407 1131.81 492.407H1118.27C1118.12 493.11 1117.96 493.812 1117.88 494.515L1117.63 495.592H1133.28C1133.78 495.592 1134.16 496.045 1134.06 496.529C1133.78 498.169 1133.53 499.808 1133.23 501.448C1133.17 501.838 1132.84 502.104 1132.45 502.104H1109.52C1109.02 502.104 1108.64 501.666 1108.72 501.167C1109 499.449 1109.33 497.732 1109.59 495.998C1109.59 495.998 1109.59 495.983 1109.59 495.967C1110.47 491.423 1111.26 486.864 1112.06 482.304C1112.34 480.493 1112.68 478.682 1112.98 476.87C1113.04 476.48 1113.37 476.199 1113.78 476.199L1113.79 476.23Z" fill="#CCFD0A"/>
<path d="M1144.16 476.23H1151.3C1151.6 476.23 1151.85 476.371 1151.99 476.636C1154.63 481.227 1157.39 485.771 1160.01 490.361C1160.84 485.88 1161.61 481.383 1162.36 476.902C1162.42 476.511 1162.75 476.23 1163.14 476.23H1169.54C1170.04 476.23 1170.41 476.683 1170.32 477.167C1168.9 485.255 1167.49 493.359 1166.07 501.463C1166.01 501.854 1165.68 502.119 1165.29 502.119H1158.31C1158.03 502.119 1157.78 501.979 1157.62 501.729C1154.86 497.17 1152.14 492.579 1149.43 487.988C1148.68 492.485 1147.83 496.967 1147.08 501.448C1147.02 501.838 1146.69 502.119 1146.3 502.119H1139.98C1139.48 502.119 1139.11 501.666 1139.2 501.182C1140.6 493.094 1141.96 484.99 1143.37 476.886C1143.43 476.496 1143.76 476.23 1144.15 476.23H1144.16Z" fill="#CCFD0A"/>
<path d="M1172.85 482.726C1172.35 482.726 1171.97 482.274 1172.07 481.79C1172.36 480.166 1172.66 478.542 1172.91 476.918C1172.97 476.527 1173.3 476.246 1173.71 476.246H1198.32C1198.82 476.246 1199.17 476.683 1199.11 477.168C1198.85 478.807 1198.57 480.447 1198.25 482.086C1198.19 482.477 1197.86 482.742 1197.47 482.742H1189.01C1187.93 488.988 1186.79 495.218 1185.7 501.464C1185.64 501.854 1185.31 502.12 1184.92 502.12H1178.59C1178.09 502.12 1177.72 501.683 1177.81 501.183C1178.88 495.031 1179.94 488.879 1180.98 482.726H1172.88H1172.85Z" fill="#CCFD0A"/>
<path d="M1223.6 492.423C1220.19 492.423 1218.04 489.612 1218.58 486.317C1218.8 484.99 1219.07 483.663 1219.3 482.336C1219.86 479.025 1222.99 476.23 1226.38 476.23H1245.55C1246.05 476.23 1246.42 476.667 1246.35 477.152C1246.08 478.791 1245.8 480.431 1245.49 482.07C1245.43 482.46 1245.1 482.726 1244.71 482.726H1228.22C1227.66 482.726 1227.12 483.21 1227.03 483.757C1226.97 484.131 1226.86 484.506 1226.8 484.896C1226.7 485.458 1227.11 485.927 1227.67 485.927H1239.51C1242.93 485.927 1245.16 488.691 1244.6 492.032C1244.38 493.36 1244.11 494.687 1243.88 496.014C1243.32 499.324 1240.1 502.119 1236.73 502.119H1217.58C1217.08 502.119 1216.71 501.666 1216.8 501.182C1217.08 499.543 1217.33 497.903 1217.63 496.264C1217.69 495.873 1218.02 495.608 1218.41 495.608H1234.9C1235.49 495.608 1236.07 495.186 1236.17 494.593C1236.23 494.218 1236.34 493.844 1236.4 493.453C1236.51 492.844 1236.03 492.423 1235.45 492.423H1223.61H1223.6Z" fill="#CCFD0A"/>
<path d="M1253.08 476.23H1276.01C1276.51 476.23 1276.89 476.667 1276.81 477.152L1276.25 480.649C1276.25 480.649 1276.25 480.68 1276.25 480.696C1276.14 481.149 1276.08 481.602 1276 482.07C1275.92 482.46 1275.61 482.726 1275.22 482.726H1259.26C1259.18 483.069 1259.18 483.429 1259.1 483.772C1258.95 484.49 1258.87 485.209 1258.71 485.927H1271.97C1272.47 485.927 1272.84 486.38 1272.75 486.864C1272.45 488.488 1272.16 490.112 1271.91 491.736C1271.85 492.126 1271.52 492.407 1271.11 492.407H1257.57C1257.42 493.11 1257.26 493.812 1257.18 494.515L1256.93 495.592H1272.58C1273.08 495.592 1273.45 496.045 1273.36 496.529C1273.08 498.169 1272.83 499.808 1272.53 501.448C1272.47 501.838 1272.14 502.104 1271.75 502.104H1248.81C1248.31 502.104 1247.94 501.666 1248.03 501.167C1248.31 499.449 1248.64 497.732 1248.91 495.998C1248.91 495.998 1248.91 495.983 1248.91 495.967C1249.78 491.423 1250.58 486.864 1251.37 482.304C1251.66 480.493 1252 478.682 1252.3 476.87C1252.36 476.48 1252.69 476.199 1253.08 476.199V476.23Z" fill="#CCFD0A"/>
<path d="M1282.74 476.902C1282.81 476.511 1283.13 476.23 1283.54 476.23H1302.87C1306.29 476.23 1308.54 478.994 1307.96 482.336C1307.59 484.459 1307.23 486.598 1306.85 488.722C1306.35 491.501 1304.07 493.859 1301.37 494.593C1302.45 496.732 1303.57 498.84 1304.71 500.948C1305 501.479 1304.62 502.119 1304.01 502.119H1296.06C1295.75 502.119 1295.5 501.963 1295.36 501.698C1294.16 499.402 1292.96 497.123 1291.77 494.827H1287.63C1287.19 497.029 1286.84 499.246 1286.48 501.448C1286.41 501.838 1286.09 502.119 1285.68 502.119H1279.28C1278.78 502.119 1278.4 501.666 1278.5 501.182C1279.56 495.03 1280.68 488.878 1281.75 482.726C1282.09 480.79 1282.45 478.853 1282.76 476.902H1282.74ZM1297.88 488.316C1298.44 488.316 1298.97 487.832 1299.06 487.285C1299.28 486.114 1299.48 484.943 1299.7 483.772C1299.8 483.21 1299.39 482.742 1298.83 482.742H1289.69L1288.74 488.332H1297.88V488.316Z" fill="#CCFD0A"/>
<path d="M1315.21 476.23H1321.61C1322.11 476.23 1322.48 476.683 1322.39 477.167C1320.97 485.255 1319.56 493.359 1318.14 501.463C1318.08 501.854 1317.75 502.119 1317.36 502.119H1310.96C1310.46 502.119 1310.09 501.666 1310.18 501.182C1311.6 493.094 1313.01 484.99 1314.43 476.886C1314.49 476.496 1314.82 476.23 1315.21 476.23Z" fill="#CCFD0A"/>
<path d="M1329.12 476.23H1352.06C1352.56 476.23 1352.93 476.667 1352.84 477.152C1352.65 478.323 1352.46 479.478 1352.28 480.649C1352.28 480.665 1352.28 480.68 1352.28 480.696C1352.17 481.149 1352.1 481.602 1352.01 482.07C1351.95 482.46 1351.62 482.726 1351.23 482.726H1335.27C1335.19 483.069 1335.19 483.429 1335.12 483.772C1334.96 484.49 1334.88 485.209 1334.73 485.927H1347.98C1348.48 485.927 1348.86 486.38 1348.76 486.864C1348.47 488.488 1348.17 490.112 1347.92 491.736C1347.86 492.126 1347.53 492.407 1347.12 492.407H1333.59C1333.43 493.11 1333.27 493.812 1333.2 494.515L1332.95 495.592H1348.59C1349.09 495.592 1349.47 496.045 1349.37 496.529C1349.09 498.169 1348.84 499.808 1348.54 501.448C1348.48 501.838 1348.15 502.104 1347.76 502.104H1324.83C1324.33 502.104 1323.95 501.666 1324.03 501.167C1324.31 499.449 1324.64 497.732 1324.9 495.998C1324.9 495.998 1324.9 495.983 1324.9 495.967C1325.78 491.423 1326.57 486.864 1327.37 482.304C1327.65 480.493 1328 478.682 1328.29 476.87C1328.35 476.48 1328.68 476.199 1329.07 476.199L1329.12 476.23Z" fill="#CCFD0A"/>
<path d="M1361.35 492.423C1357.94 492.423 1355.79 489.612 1356.34 486.317C1356.55 484.99 1356.82 483.663 1357.05 482.336C1357.62 479.025 1360.74 476.23 1364.13 476.23H1383.3C1383.8 476.23 1384.16 476.667 1384.1 477.152C1383.83 478.791 1383.55 480.431 1383.24 482.07C1383.18 482.46 1382.85 482.726 1382.46 482.726H1365.97C1365.41 482.726 1364.88 483.21 1364.78 483.757C1364.72 484.131 1364.61 484.506 1364.55 484.896C1364.46 485.458 1364.86 485.927 1365.42 485.927H1377.26C1380.68 485.927 1382.91 488.691 1382.35 492.032C1382.13 493.36 1381.87 494.687 1381.63 496.014C1381.07 499.324 1377.85 502.119 1374.48 502.119H1355.34C1354.84 502.119 1354.46 501.666 1354.56 501.182C1354.84 499.543 1355.1 497.903 1355.38 496.264C1355.45 495.873 1355.77 495.608 1356.16 495.608H1372.65C1373.25 495.608 1373.82 495.186 1373.92 494.593C1373.98 494.218 1374.09 493.844 1374.15 493.453C1374.26 492.844 1373.78 492.423 1373.2 492.423H1361.36H1361.35Z" fill="#CCFD0A"/>
</g>
<defs>
<clipPath id="clip0_5965_1559">
<rect width="1479" height="680" fill="white"/>
</clipPath>
</defs>
</svg>
